<?xml version="1.0" standalone="no"?>
<!DOCTYPE svg PUBLIC "-//W3C//DTD SVG 20010904//EN"
 "http://www.w3.org/TR/2001/REC-SVG-20010904/DTD/svg10.dtd">
<svg version="1.0" xmlns="http://www.w3.org/2000/svg"
 width="512.000000pt" height="512.000000pt" viewBox="0 0 512.000000 512.000000"
 preserveAspectRatio="xMidYMid meet">

<g transform="translate(0.000000,512.000000) scale(0.100000,-0.100000)"
fill="#000000" stroke="none">
<path d="M2509 5101 c-24 -19 -24 -21 -27 -249 l-3 -230 -47 -12 c-60 -15
-150 -62 -201 -106 -55 -47 -118 -146 -139 -216 l-17 -58 -226 0 c-214 0 -228
-1 -253 -21 -33 -26 -36 -79 -6 -109 16 -16 33 -20 84 -20 l65 0 15 -53 c44
-150 174 -269 333 -302 85 -18 835 -21 928 -4 162 30 294 146 346 303 l16 51
314 0 c358 0 378 -4 444 -77 69 -76 65 -3 65 -1125 l0 -1018 -24 -50 c-28 -60
-56 -87 -116 -114 -45 -20 -57 -21 -1494 -21 -1071 0 -1459 3 -1487 12 -52 15
-113 68 -138 121 -21 43 -21 49 -21 1065 0 1128 -4 1061 63 1130 57 60 99 75
225 80 106 4 114 6 132 30 23 28 24 41 9 75 -16 35 -50 47 -133 47 -148 0
-247 -35 -330 -117 -98 -96 -125 -192 -126 -440 l0 -133 -110 0 c-134 0 -198
-20 -263 -83 -75 -73 -91 -121 -95 -274 l-4 -133 -90 0 c-119 0 -148 -15 -148
-77 0 -60 25 -73 140 -73 l100 0 0 -113 c0 -72 6 -132 15 -165 21 -69 80 -140
146 -177 51 -28 62 -30 181 -33 l128 -4 0 -237 c1 -130 5 -266 9 -303 18 -136
99 -251 220 -311 l66 -32 500 -6 c275 -4 740 -7 1033 -8 l532 -1 0 -185 0
-185 -555 0 -555 0 0 59 c0 91 -43 133 -108 105 -34 -14 -40 -30 -44 -114 l-3
-55 -595 -5 c-581 -5 -596 -5 -648 -27 -160 -65 -264 -184 -307 -349 -12 -45
-15 -120 -15 -331 l0 -273 -98 0 c-85 0 -101 -3 -120 -20 -30 -28 -30 -82 0
-110 l22 -20 2466 0 2466 0 22 20 c30 28 30 82 0 110 -19 17 -35 20 -120 20
l-98 0 0 273 c0 294 -6 338 -56 441 -55 112 -168 208 -291 246 -62 19 -92 20
-634 20 l-569 0 0 195 0 194 393 3 392 3 66 32 c121 60 202 175 220 311 4 37
8 173 9 303 l0 237 128 4 c119 3 130 5 181 33 66 37 125 108 146 177 9 33 15
93 15 165 l0 113 100 0 c115 0 140 13 140 73 0 62 -29 77 -148 77 l-90 0 -4
133 c-4 153 -20 201 -95 274 -65 63 -129 83 -263 83 l-110 0 0 133 c0 72 -5
164 -10 204 -23 174 -151 311 -319 343 -31 6 -248 10 -522 10 l-468 0 -12 42
c-19 71 -58 139 -117 200 -65 69 -133 110 -219 134 l-63 17 0 228 0 228 -26
20 c-33 26 -65 27 -95 2z m114 -680 c42 -45 85 -117 101 -168 l7 -23 -245 0
c-164 0 -246 3 -246 10 0 18 37 85 66 119 48 58 156 110 230 111 37 0 46 -5
87 -49z m583 -354 c13 -13 -36 -96 -79 -132 -75 -64 -82 -65 -576 -65 -427 0
-448 1 -491 21 -72 32 -160 131 -160 180 0 13 1293 9 1306 -4z m-2566 -1092
l0 -415 -32 0 c-49 0 -114 37 -140 78 -23 36 -23 42 -23 337 0 295 0 301 23
337 26 41 91 78 140 78 l32 0 0 -415z m3854 363 l26 -52 0 -311 0 -311 -26
-52 -26 -52 -54 0 -54 0 0 415 0 415 54 0 54 0 26 -52z m-40 -2378 c102 -39
173 -113 206 -219 18 -57 20 -91 20 -327 l0 -264 -2121 0 -2120 0 3 288 c3
286 3 287 29 343 42 89 126 161 219 190 14 4 854 8 1867 8 1830 1 1843 1 1897
-19z"/>
<path d="M3481 751 c-28 -28 -33 -67 -29 -250 l3 -163 28 -24 28 -24 459 0
c253 0 469 4 483 9 42 16 49 53 45 251 -4 239 20 220 -270 220 l-219 0 -24
-25 c-14 -13 -25 -36 -25 -50 0 -14 11 -37 25 -50 24 -25 27 -25 190 -25 l165
0 0 -90 0 -90 -365 0 -365 0 0 90 0 90 50 0 c41 0 56 5 77 26 20 20 24 31 19
57 -11 56 -35 67 -152 67 -90 0 -107 -3 -123 -19z"/>
<path d="M1162 734 c-119 -59 -166 -201 -107 -321 99 -199 398 -160 444 58 42
192 -161 351 -337 263z m147 -139 c32 -16 41 -33 41 -79 0 -74 -98 -109 -146
-52 -33 38 -31 80 5 117 33 32 58 36 100 14z"/>
<path d="M1781 747 c-48 -19 -108 -72 -133 -120 -29 -54 -30 -155 -4 -207 76
-148 254 -183 375 -74 63 56 85 111 79 193 -9 122 -98 210 -220 217 -36 2 -77
-2 -97 -9z m113 -151 c44 -18 63 -64 46 -106 -15 -37 -37 -50 -84 -50 -25 0
-40 7 -55 26 -43 55 -16 123 57 143 1 1 17 -5 36 -13z"/>
<path d="M2333 590 c-44 -18 -57 -86 -23 -120 19 -19 33 -20 498 -20 467 0
479 0 497 20 25 28 23 76 -4 103 -21 22 -23 22 -484 24 -254 1 -472 -2 -484
-7z"/>
<path d="M1535 3418 c-27 -5 -84 -25 -125 -45 -198 -95 -323 -323 -292 -533
15 -103 45 -180 101 -253 196 -260 562 -288 791 -59 75 75 122 157 145 254 87
369 -243 708 -620 636z m165 -148 c79 -15 153 -53 204 -103 217 -218 97 -587
-207 -637 -158 -25 -322 62 -395 210 -24 49 -27 66 -27 160 0 95 3 111 28 162
51 104 156 185 267 207 63 12 70 12 130 1z"/>
<path d="M1583 3161 c-48 -12 -120 -58 -147 -94 -40 -52 -56 -101 -56 -170 0
-244 304 -352 464 -165 36 42 66 118 66 168 0 89 -71 199 -153 239 -49 23
-128 33 -174 22z m116 -165 c33 -17 51 -54 51 -102 0 -53 -53 -104 -109 -104
-59 0 -101 40 -108 103 -5 43 -3 49 30 82 39 39 86 46 136 21z"/>
<path d="M3378 3414 c-122 -29 -247 -116 -320 -221 -69 -101 -102 -263 -79
-388 6 -33 29 -97 51 -141 75 -154 225 -261 401 -287 154 -22 319 33 433 147
111 110 160 225 159 381 -1 110 -25 194 -83 282 -123 187 -350 279 -562 227z
m258 -165 c72 -27 157 -106 197 -183 29 -57 32 -68 32 -161 0 -88 -3 -107 -27
-157 -134 -286 -532 -296 -672 -18 -40 81 -53 159 -38 235 48 238 282 368 508
284z"/>
<path d="M3428 3157 c-108 -31 -198 -147 -198 -257 0 -53 30 -127 70 -172 124
-142 351 -114 434 54 51 103 25 245 -57 314 -71 60 -167 83 -249 61z m144
-176 c29 -26 33 -35 33 -81 0 -46 -4 -55 -33 -81 -38 -34 -88 -39 -132 -12
-34 20 -50 52 -50 101 1 92 112 136 182 73z"/>
<path d="M1676 2304 c-66 -21 -137 -93 -161 -163 -44 -133 17 -272 145 -330
44 -20 62 -21 896 -21 934 0 895 -2 974 60 86 68 119 215 70 314 -30 63 -97
121 -161 140 -77 23 -1688 23 -1763 0z m174 -249 l0 -115 -55 0 c-67 0 -109
20 -130 60 -20 38 -19 75 2 111 23 38 67 58 131 59 l52 0 0 -115z m330 0 l0
-115 -90 0 -90 0 0 115 0 115 90 0 90 0 0 -115z m320 0 l0 -115 -85 0 -85 0 0
115 0 115 85 0 85 0 0 -115z m330 0 l0 -115 -85 0 -85 0 0 115 0 115 85 0 85
0 0 -115z m318 -2 l3 -113 -86 0 -85 0 0 115 0 116 83 -3 82 -3 3 -112z m244
107 c79 -22 106 -119 50 -181 -24 -27 -37 -33 -85 -37 l-57 -4 0 116 0 116 28
0 c15 0 44 -5 64 -10z"/>
</g>
</svg>
